<mxfile host="app.diagrams.net" agent="Mozilla/5.0 (Windows NT 10.0; Win64; x64) AppleWebKit/537.36 (KHTML, like Gecko) Chrome/130.0.0.0 Safari/537.36" version="24.8.4">
  <diagram name="Page-1" id="sGiX_tDow7zWMwkAg3KQ">
    <mxGraphModel dx="1050" dy="522" grid="1" gridSize="10" guides="1" tooltips="1" connect="1" arrows="1" fold="1" page="1" pageScale="1" pageWidth="850" pageHeight="1100" math="0" shadow="0">
      <root>
        <mxCell id="0" />
        <mxCell id="1" parent="0" />
        <mxCell id="aHAB_LyVnFk-L-Fg9SyF-11" value="" style="edgeStyle=orthogonalEdgeStyle;rounded=0;orthogonalLoop=1;jettySize=auto;html=1;" edge="1" parent="1" source="aHAB_LyVnFk-L-Fg9SyF-1" target="aHAB_LyVnFk-L-Fg9SyF-3">
          <mxGeometry relative="1" as="geometry" />
        </mxCell>
        <mxCell id="aHAB_LyVnFk-L-Fg9SyF-1" value="" style="ellipse;whiteSpace=wrap;html=1;aspect=fixed;fillColor=#000000;" vertex="1" parent="1">
          <mxGeometry x="70" y="110" width="20" height="20" as="geometry" />
        </mxCell>
        <mxCell id="aHAB_LyVnFk-L-Fg9SyF-2" value="" style="ellipse;html=1;shape=endState;fillColor=#000000;strokeColor=#ff0000;" vertex="1" parent="1">
          <mxGeometry x="195" y="400" width="30" height="30" as="geometry" />
        </mxCell>
        <mxCell id="aHAB_LyVnFk-L-Fg9SyF-12" value="" style="edgeStyle=orthogonalEdgeStyle;rounded=0;orthogonalLoop=1;jettySize=auto;html=1;" edge="1" parent="1" source="aHAB_LyVnFk-L-Fg9SyF-3" target="aHAB_LyVnFk-L-Fg9SyF-4">
          <mxGeometry relative="1" as="geometry" />
        </mxCell>
        <mxCell id="aHAB_LyVnFk-L-Fg9SyF-3" value="books returned to collection box" style="rounded=1;whiteSpace=wrap;html=1;" vertex="1" parent="1">
          <mxGeometry x="150" y="90" width="120" height="60" as="geometry" />
        </mxCell>
        <mxCell id="aHAB_LyVnFk-L-Fg9SyF-13" value="" style="edgeStyle=orthogonalEdgeStyle;rounded=0;orthogonalLoop=1;jettySize=auto;html=1;" edge="1" parent="1" source="aHAB_LyVnFk-L-Fg9SyF-4" target="aHAB_LyVnFk-L-Fg9SyF-5">
          <mxGeometry relative="1" as="geometry" />
        </mxCell>
        <mxCell id="aHAB_LyVnFk-L-Fg9SyF-4" value="Library assistant scans book barcode to check in book" style="rounded=1;whiteSpace=wrap;html=1;" vertex="1" parent="1">
          <mxGeometry x="330" y="90" width="120" height="60" as="geometry" />
        </mxCell>
        <mxCell id="aHAB_LyVnFk-L-Fg9SyF-14" value="" style="edgeStyle=orthogonalEdgeStyle;rounded=0;orthogonalLoop=1;jettySize=auto;html=1;" edge="1" parent="1" source="aHAB_LyVnFk-L-Fg9SyF-5" target="aHAB_LyVnFk-L-Fg9SyF-6">
          <mxGeometry relative="1" as="geometry" />
        </mxCell>
        <mxCell id="aHAB_LyVnFk-L-Fg9SyF-5" value="system displays book detail and due date" style="rounded=1;whiteSpace=wrap;html=1;" vertex="1" parent="1">
          <mxGeometry x="510" y="90" width="120" height="60" as="geometry" />
        </mxCell>
        <mxCell id="aHAB_LyVnFk-L-Fg9SyF-15" value="" style="edgeStyle=orthogonalEdgeStyle;rounded=0;orthogonalLoop=1;jettySize=auto;html=1;entryX=1;entryY=0.5;entryDx=0;entryDy=0;" edge="1" parent="1" source="aHAB_LyVnFk-L-Fg9SyF-6" target="aHAB_LyVnFk-L-Fg9SyF-7">
          <mxGeometry relative="1" as="geometry" />
        </mxCell>
        <mxCell id="aHAB_LyVnFk-L-Fg9SyF-6" value="" style="rhombus;whiteSpace=wrap;html=1;" vertex="1" parent="1">
          <mxGeometry x="520" y="200" width="100" height="50" as="geometry" />
        </mxCell>
        <mxCell id="aHAB_LyVnFk-L-Fg9SyF-18" value="" style="edgeStyle=orthogonalEdgeStyle;rounded=0;orthogonalLoop=1;jettySize=auto;html=1;" edge="1" parent="1" source="aHAB_LyVnFk-L-Fg9SyF-7" target="aHAB_LyVnFk-L-Fg9SyF-10">
          <mxGeometry relative="1" as="geometry" />
        </mxCell>
        <mxCell id="aHAB_LyVnFk-L-Fg9SyF-7" value="overdue fine calculated and new fine record is created" style="rounded=1;whiteSpace=wrap;html=1;" vertex="1" parent="1">
          <mxGeometry x="150" y="195" width="120" height="60" as="geometry" />
        </mxCell>
        <mxCell id="aHAB_LyVnFk-L-Fg9SyF-8" value="[book returned late]" style="text;html=1;align=center;verticalAlign=middle;resizable=0;points=[];autosize=1;strokeColor=none;fillColor=none;" vertex="1" parent="1">
          <mxGeometry x="330" y="195" width="130" height="30" as="geometry" />
        </mxCell>
        <mxCell id="aHAB_LyVnFk-L-Fg9SyF-9" value="[book returned in time]" style="text;html=1;align=center;verticalAlign=middle;resizable=0;points=[];autosize=1;strokeColor=none;fillColor=none;" vertex="1" parent="1">
          <mxGeometry x="570" y="270" width="140" height="30" as="geometry" />
        </mxCell>
        <mxCell id="aHAB_LyVnFk-L-Fg9SyF-17" value="" style="edgeStyle=orthogonalEdgeStyle;rounded=0;orthogonalLoop=1;jettySize=auto;html=1;" edge="1" parent="1" source="aHAB_LyVnFk-L-Fg9SyF-10" target="aHAB_LyVnFk-L-Fg9SyF-2">
          <mxGeometry relative="1" as="geometry" />
        </mxCell>
        <mxCell id="aHAB_LyVnFk-L-Fg9SyF-10" value="system display &quot;Check in Finish&quot;" style="rounded=1;whiteSpace=wrap;html=1;" vertex="1" parent="1">
          <mxGeometry x="150" y="295" width="120" height="60" as="geometry" />
        </mxCell>
        <mxCell id="aHAB_LyVnFk-L-Fg9SyF-16" value="" style="endArrow=classic;html=1;rounded=0;exitX=0.5;exitY=1;exitDx=0;exitDy=0;entryX=1;entryY=0.5;entryDx=0;entryDy=0;edgeStyle=orthogonalEdgeStyle;" edge="1" parent="1" source="aHAB_LyVnFk-L-Fg9SyF-6" target="aHAB_LyVnFk-L-Fg9SyF-10">
          <mxGeometry width="50" height="50" relative="1" as="geometry">
            <mxPoint x="510" y="370" as="sourcePoint" />
            <mxPoint x="560" y="320" as="targetPoint" />
          </mxGeometry>
        </mxCell>
      </root>
    </mxGraphModel>
  </diagram>
</mxfile>
